<svg width="260" height="227" viewBox="0 0 260 227" fill="none" xmlns="http://www.w3.org/2000/svg">
<path fill-rule="evenodd" clip-rule="evenodd" d="M20.9488 110.53C15.2808 128.89 28.3883 150.533 41.7564 119.449C50.9638 98.0408 42.3898 86.4371 32.8737 91.93C28.5731 94.4129 24.0801 100.389 20.9488 110.53ZM125.293 74.5285C117.665 92.2033 110.662 96.4998 95.5623 99.8144C92.2105 100.55 88.8678 101.032 85.573 101.508C74.0261 103.174 63.0684 104.755 54.3713 116.851C47.59 126.281 45.1487 150.124 77.5893 169.217C103.831 184.661 152.413 191.315 183.007 162.49C202.962 143.689 212.138 107.016 198.831 73.729C191.928 56.4606 178.183 39.0982 159.762 36.3967C153.266 35.4439 148.343 36.3846 144.473 38.6173C136.522 43.2073 133.01 53.2609 129.403 63.5887C128.114 67.2792 126.813 71.0048 125.293 74.5285ZM192.981 39.8796C198.389 55.565 214.452 80.4119 222.513 65.9563C229.004 54.3171 199.866 27.027 193.12 30.9166C191.488 31.8574 191.168 34.6244 192.981 39.8796ZM184.535 28.4513C185.917 36.8951 178.476 33.7745 176.813 28.0438C175.703 24.2142 176.264 22.1149 177.488 21.4094C179.594 20.195 183.661 23.1098 184.535 28.4513ZM61.1811 98.7356C48.2113 108.622 50.2818 95.821 57.7178 90.1833C58.6302 89.4901 59.5065 88.9084 60.3401 88.4271C69.1781 83.3257 73.0319 89.7029 61.1811 98.7356Z" fill="#F5F5F9"/>
<mask id="mask0_1_323" style="mask-type:luminance" maskUnits="userSpaceOnUse" x="158" y="50" width="6" height="6">
<path fill-rule="evenodd" clip-rule="evenodd" d="M158.889 50.9083H163.405V55.4244H158.889V50.9083Z" fill="white"/>
</mask>
<g mask="url(#mask0_1_323)">
<path fill-rule="evenodd" clip-rule="evenodd" d="M163.02 51.9065C163.716 52.9411 163.441 54.3443 162.407 55.0398C161.372 55.7358 159.969 55.4611 159.273 54.4262C158.577 53.3916 158.852 51.9884 159.887 51.2926C160.921 50.5969 162.324 50.8719 163.02 51.9065Z" fill="#4184F3"/>
</g>
<path fill-rule="evenodd" clip-rule="evenodd" d="M178.853 41.5693C179.513 42.5498 179.252 43.8796 178.272 44.539C177.291 45.1983 175.962 44.9379 175.302 43.9572C174.643 42.9767 174.903 41.6472 175.884 40.9878C176.864 40.3282 178.194 40.5889 178.853 41.5693Z" fill="#4184F3"/>
<path fill-rule="evenodd" clip-rule="evenodd" d="M173.504 68.3184C174.163 69.2989 173.903 70.6284 172.922 71.2878C171.942 71.9474 170.612 71.6871 169.953 70.706C169.293 69.7255 169.554 68.396 170.534 67.7366C171.515 67.0773 172.844 67.3379 173.504 68.3184Z" fill="#4184F3"/>
<path fill-rule="evenodd" clip-rule="evenodd" d="M189.553 57.6188C190.213 58.5993 189.952 59.9291 188.972 60.5882C187.991 61.2478 186.661 60.9875 186.002 60.0067C185.343 59.0262 185.603 57.6964 186.584 57.0373C187.564 56.3776 188.893 56.6383 189.553 57.6188Z" fill="#4184F3"/>
<path fill-rule="evenodd" clip-rule="evenodd" d="M205.603 46.3843C206.262 47.3648 206.001 48.6943 205.021 49.3536C204.04 50.0132 202.711 49.7529 202.052 48.7718C201.392 47.7914 201.652 46.4619 202.633 45.8026C203.613 45.1429 204.943 45.4039 205.603 46.3843Z" fill="#4184F3"/>
<path fill-rule="evenodd" clip-rule="evenodd" d="M221.652 35.6846C222.311 36.6651 222.051 37.9949 221.07 38.654C220.089 39.3136 218.76 39.0533 218.101 38.0725C217.441 37.092 217.702 35.7621 218.682 35.1031C219.663 34.4434 220.992 34.7041 221.652 35.6846Z" fill="#4184F3"/>
<path fill-rule="evenodd" clip-rule="evenodd" d="M184.738 84.3677C185.398 85.3481 185.137 86.678 184.157 87.3373C183.176 87.9967 181.847 87.7363 181.187 86.7555C180.528 85.7751 180.788 84.4452 181.769 83.7862C182.749 83.1265 184.079 83.3872 184.738 84.3677Z" fill="#4184F3"/>
<path fill-rule="evenodd" clip-rule="evenodd" d="M200.788 73.6682C201.447 74.6486 201.186 75.9784 200.206 76.6375C199.225 77.2971 197.896 77.0368 197.237 76.056C196.577 75.0755 196.837 73.7457 197.818 73.0864C198.799 72.427 200.128 72.6877 200.788 73.6682Z" fill="#4184F3"/>
<path fill-rule="evenodd" clip-rule="evenodd" d="M216.837 62.4336C217.496 63.4141 217.236 64.7439 216.255 65.4032C215.275 66.0626 213.945 65.8022 213.286 64.8214C212.626 63.841 212.887 62.5112 213.867 61.8521C214.848 61.1925 216.177 61.4531 216.837 62.4336Z" fill="#4184F3"/>
<path fill-rule="evenodd" clip-rule="evenodd" d="M232.887 51.7341C233.546 52.7145 233.285 54.0441 232.305 54.7034C231.324 55.3631 229.995 55.1027 229.336 54.1219C228.676 53.1415 228.936 51.8116 229.917 51.1523C230.898 50.4929 232.227 50.7536 232.887 51.7341Z" fill="#4184F3"/>
<mask id="mask1_1_323" style="mask-type:luminance" maskUnits="userSpaceOnUse" x="207" y="88" width="5" height="6">
<path fill-rule="evenodd" clip-rule="evenodd" d="M207.28 88.5354H211.796V93.0514H207.28V88.5354Z" fill="white"/>
</mask>
<g mask="url(#mask1_1_323)">
<path fill-rule="evenodd" clip-rule="evenodd" d="M211.411 89.5335C212.107 90.5684 211.832 91.9713 210.798 92.6671C209.763 93.3628 208.36 93.0881 207.664 92.0532C206.968 91.0186 207.243 89.6157 208.278 88.9199C209.313 88.2239 210.715 88.4989 211.411 89.5335Z" fill="#4184F3"/>
</g>
<path fill-rule="evenodd" clip-rule="evenodd" d="M227.537 78.483C228.196 79.4634 227.935 80.7933 226.955 81.4523C225.974 82.112 224.645 81.8516 223.986 80.8708C223.326 79.8904 223.586 78.5605 224.567 77.9012C225.548 77.2418 226.877 77.5025 227.537 78.483Z" fill="#4184F3"/>
<mask id="mask2_1_323" style="mask-type:luminance" maskUnits="userSpaceOnUse" x="239" y="66" width="5" height="6">
<path fill-rule="evenodd" clip-rule="evenodd" d="M239.354 66.9661H243.869V71.4821H239.354V66.9661Z" fill="white"/>
</mask>
<g mask="url(#mask2_1_323)">
<path fill-rule="evenodd" clip-rule="evenodd" d="M243.485 67.9642C244.181 68.9988 243.906 70.402 242.871 71.0977C241.836 71.7935 240.434 71.5187 239.738 70.4838C239.042 69.4493 239.317 68.0463 240.352 67.3506C241.386 66.6546 242.789 66.9296 243.485 67.9642Z" fill="#4184F3"/>
</g>
<g filter="url(#filter0_d_1_323)">
<path d="M198.28 53.9979H45.7856C43.5765 53.9979 41.7856 55.7888 41.7856 57.9979V156.994C41.7856 159.203 43.5765 160.994 45.7856 160.994H198.28C200.489 160.994 202.28 159.203 202.28 156.994V57.9979C202.28 55.7888 200.489 53.9979 198.28 53.9979Z" fill="white"/>
</g>
<path d="M220.691 84.4918H77.8271C75.618 84.4918 73.8271 86.2827 73.8271 88.4918V121.685C73.8271 123.894 75.618 125.685 77.8271 125.685H220.691C222.9 125.685 224.691 123.894 224.691 121.685V88.4918C224.691 86.2827 222.9 84.4918 220.691 84.4918Z" stroke="#9B9BAA" stroke-width="3" stroke-linecap="round" stroke-linejoin="bevel" stroke-dasharray="4 15"/>
<g filter="url(#filter1_d_1_323)">
<path d="M235.671 70.0474H92.8066C90.5975 70.0474 88.8066 71.8383 88.8066 74.0474V107.241C88.8066 109.45 90.5975 111.241 92.8066 111.241H235.671C237.88 111.241 239.671 109.45 239.671 107.241V74.0474C239.671 71.8383 237.88 70.0474 235.671 70.0474Z" fill="white"/>
</g>
<path d="M219.96 81.8169H139.433C138.328 81.8169 137.433 82.7123 137.433 83.8169V86.2366C137.433 87.3412 138.328 88.2366 139.433 88.2366H219.96C221.064 88.2366 221.96 87.3412 221.96 86.2366V83.8169C221.96 82.7123 221.064 81.8169 219.96 81.8169Z" fill="#3F89D7"/>
<path d="M176.626 93.0515H139.433C138.328 93.0515 137.433 93.9469 137.433 95.0515V97.4713C137.433 98.5758 138.328 99.4713 139.433 99.4713H176.626C177.731 99.4713 178.626 98.5758 178.626 97.4713V95.0515C178.626 93.9469 177.731 93.0515 176.626 93.0515Z" fill="#D2D2D2"/>
<path fill-rule="evenodd" clip-rule="evenodd" d="M104.642 80.7469H124.329C125.683 80.7469 126.79 81.8604 126.79 83.2212V98.0669C126.79 99.4278 125.683 100.541 124.329 100.541H104.642C103.289 100.541 102.181 99.4278 102.181 98.0669V83.2212C102.181 81.8604 103.289 80.7469 104.642 80.7469Z" stroke="#FCB949" stroke-width="2" stroke-linecap="round" stroke-linejoin="round"/>
<path d="M126.79 82.7947L114.486 91.668L102.181 82.7947" stroke="#FCB949" stroke-width="2" stroke-linecap="round" stroke-linejoin="round"/>
<path opacity="0.104195" fill-rule="evenodd" clip-rule="evenodd" d="M56.9571 40.6234C62.6047 40.6234 67.1832 45.1906 67.1832 50.8244V83.8595C67.1832 89.2423 63.0032 93.6406 57.7057 94.0229L69.5473 113.381L38.3377 94.0614H10.2261C4.5785 94.0614 0 89.4942 0 83.8595V50.8244C0 45.1906 4.5785 40.6234 10.2261 40.6234H56.9571Z" fill="#3F89D7"/>
<path fill-rule="evenodd" clip-rule="evenodd" d="M26.9475 48.7825C29.4028 47.6687 32.1279 47.0432 35.0009 47.0432C45.7633 47.0432 54.4877 55.7478 54.4877 66.4855C54.4877 68.1721 54.2719 69.808 53.8674 71.3681L53.8647 71.3678L53.8649 71.3703C51.6854 79.7771 44.137 85.8075 35.0295 85.8075C24.6691 85.8075 16.2523 77.931 15.5729 67.7664C15.5691 67.7698 15.5654 67.7732 15.5617 67.7766C15.5336 67.3493 15.5142 66.9198 15.5142 66.4855C15.5142 59.7818 18.915 53.8709 24.089 50.3755C24.9902 49.7666 25.9474 49.2362 26.9475 48.7825ZM26.7699 55.5706C24.6537 60.3429 21.6309 64.6644 17.8811 68.2976L17.7423 68.4301L17.7545 68.5269C18.8463 77.0134 26.0541 83.5306 34.7542 83.6654L35.0295 83.6676C42.7808 83.6676 49.5147 78.5751 51.7093 71.3279L51.7869 71.0603C43.9729 69.6849 36.9733 65.9549 31.5508 60.6306C31.4203 60.5024 32.0021 62.0555 32.5302 63.4649C32.9776 64.6591 33.3863 65.7503 33.2906 65.6285C28.848 59.9796 27.5673 57.3937 26.7699 55.5706Z" fill="#3F89D7"/>
<path fill-rule="evenodd" clip-rule="evenodd" d="M192.878 191.743C187.231 191.743 182.652 187.176 182.652 181.542V163.766C182.652 158.383 186.832 153.985 192.13 153.603L180.288 134.245L211.498 153.564H228.91C234.557 153.564 239.136 158.131 239.136 163.766V181.542C239.136 187.176 234.557 191.743 228.91 191.743H192.878Z" fill="#FCB949"/>
<path d="M193.663 185.645C195.436 185.645 196.873 184.208 196.873 182.435C196.873 180.662 195.436 179.225 193.663 179.225C191.89 179.225 190.453 180.662 190.453 182.435C190.453 184.208 191.89 185.645 193.663 185.645Z" fill="white"/>
<path d="M205.432 185.645C207.205 185.645 208.642 184.208 208.642 182.435C208.642 180.662 207.205 179.225 205.432 179.225C203.659 179.225 202.222 180.662 202.222 182.435C202.222 184.208 203.659 185.645 205.432 185.645Z" fill="white"/>
<path d="M217.202 185.645C218.975 185.645 220.412 184.208 220.412 182.435C220.412 180.662 218.975 179.225 217.202 179.225C215.429 179.225 213.992 180.662 213.992 182.435C213.992 184.208 215.429 185.645 217.202 185.645Z" fill="white"/>
<path d="M228.971 185.645C230.744 185.645 232.181 184.208 232.181 182.435C232.181 180.662 230.744 179.225 228.971 179.225C227.198 179.225 225.761 180.662 225.761 182.435C225.761 184.208 227.198 185.645 228.971 185.645Z" fill="white"/>
<path d="M202.428 167.682C202.428 168.936 202.193 170.009 201.724 170.903C201.258 171.794 200.621 172.475 199.814 172.949C199.011 173.422 198.1 173.659 197.081 173.659C196.063 173.659 195.15 173.422 194.343 172.949C193.54 172.472 192.903 171.788 192.434 170.898C191.968 170.004 191.735 168.932 191.735 167.682C191.735 166.428 191.968 165.356 192.434 164.466C192.903 163.572 193.54 162.888 194.343 162.415C195.15 161.941 196.063 161.705 197.081 161.705C198.1 161.705 199.011 161.941 199.814 162.415C200.621 162.888 201.258 163.572 201.724 164.466C202.193 165.356 202.428 166.428 202.428 167.682ZM200.309 167.682C200.309 166.799 200.17 166.055 199.894 165.449C199.621 164.839 199.242 164.379 198.758 164.068C198.273 163.754 197.714 163.597 197.081 163.597C196.449 163.597 195.89 163.754 195.405 164.068C194.92 164.379 194.54 164.839 194.263 165.449C193.991 166.055 193.854 166.799 193.854 167.682C193.854 168.564 193.991 169.311 194.263 169.92C194.54 170.527 194.92 170.987 195.405 171.301C195.89 171.612 196.449 171.767 197.081 171.767C197.714 171.767 198.273 171.612 198.758 171.301C199.242 170.987 199.621 170.527 199.894 169.92C200.17 169.311 200.309 168.564 200.309 167.682ZM207.394 163.631V161.864H216.678V163.631H213.081V173.5H210.991V163.631H207.394ZM222.468 173.5V161.864H226.831C227.725 161.864 228.475 162.03 229.081 162.364C229.691 162.697 230.152 163.155 230.462 163.739C230.777 164.318 230.934 164.977 230.934 165.716C230.934 166.462 230.777 167.125 230.462 167.705C230.148 168.284 229.684 168.741 229.07 169.074C228.456 169.403 227.701 169.568 226.803 169.568H223.911V167.835H226.519C227.042 167.835 227.47 167.744 227.803 167.562C228.136 167.381 228.383 167.131 228.542 166.812C228.705 166.494 228.786 166.129 228.786 165.716C228.786 165.303 228.705 164.939 228.542 164.625C228.383 164.311 228.134 164.066 227.797 163.892C227.464 163.714 227.034 163.625 226.508 163.625H224.576V173.5H222.468Z" fill="white"/>
<defs>
<filter id="filter0_d_1_323" x="31.7856" y="45.9979" width="180.494" height="126.996" filterUnits="userSpaceOnUse" color-interpolation-filters="sRGB">
<feFlood flood-opacity="0" result="BackgroundImageFix"/>
<feColorMatrix in="SourceAlpha" type="matrix" values="0 0 0 0 0 0 0 0 0 0 0 0 0 0 0 0 0 0 127 0" result="hardAlpha"/>
<feOffset dy="2"/>
<feGaussianBlur stdDeviation="5"/>
<feColorMatrix type="matrix" values="0 0 0 0 0 0 0 0 0 0 0 0 0 0 0 0 0 0 0.15 0"/>
<feBlend mode="normal" in2="BackgroundImageFix" result="effect1_dropShadow_1_323"/>
<feBlend mode="normal" in="SourceGraphic" in2="effect1_dropShadow_1_323" result="shape"/>
</filter>
<filter id="filter1_d_1_323" x="80.8066" y="64.0474" width="166.864" height="57.1934" filterUnits="userSpaceOnUse" color-interpolation-filters="sRGB">
<feFlood flood-opacity="0" result="BackgroundImageFix"/>
<feColorMatrix in="SourceAlpha" type="matrix" values="0 0 0 0 0 0 0 0 0 0 0 0 0 0 0 0 0 0 127 0" result="hardAlpha"/>
<feOffset dy="2"/>
<feGaussianBlur stdDeviation="4"/>
<feColorMatrix type="matrix" values="0 0 0 0 0 0 0 0 0 0 0 0 0 0 0 0 0 0 0.2 0"/>
<feBlend mode="normal" in2="BackgroundImageFix" result="effect1_dropShadow_1_323"/>
<feBlend mode="normal" in="SourceGraphic" in2="effect1_dropShadow_1_323" result="shape"/>
</filter>
</defs>
</svg>
