<svg width="206" height="198" viewBox="0 0 206 198" fill="none" xmlns="http://www.w3.org/2000/svg">
<path fill-rule="evenodd" clip-rule="evenodd" d="M66.925 7.46052C117.425 -2.54248 181.634 1.36916 200.124 49.735C220.394 102.757 185.531 161.545 136.736 190.07C98.9431 212.163 54.4194 184.342 24.1415 152.612C6.20512 133.815 26.8209 107.594 34.1867 82.6039C42.7316 53.614 37.4589 13.2972 66.925 7.46052Z" fill="#FAFAFB"/>
<path fill-rule="evenodd" clip-rule="evenodd" d="M161.414 19.0073C161.436 18.4555 161.901 18.0258 162.453 18.0477C162.808 18.0617 163.162 18.079 163.515 18.0996C164.066 18.1318 164.487 18.6048 164.455 19.1562C164.423 19.7075 163.95 20.1284 163.398 20.0962C163.058 20.0764 162.716 20.0597 162.373 20.0461C161.822 20.0242 161.392 19.5592 161.414 19.0073ZM150.881 19.5449C150.946 20.0932 150.555 20.5912 150.007 20.6571C149.664 20.6985 149.319 20.7414 148.974 20.786C148.427 20.8568 147.925 20.4701 147.855 19.9224C147.784 19.3746 148.17 18.8732 148.718 18.8025C149.069 18.7572 149.419 18.7135 149.768 18.6714C150.317 18.6055 150.815 18.9965 150.881 19.5449ZM174.78 21.2046C174.976 20.6883 175.553 20.4285 176.07 20.6244C176.405 20.7517 176.739 20.8843 177.071 21.0223C177.581 21.2344 177.822 21.8197 177.61 22.3297C177.398 22.8396 176.813 23.0811 176.303 22.869C175.99 22.7391 175.676 22.6143 175.36 22.4943C174.844 22.2984 174.584 21.721 174.78 21.2046ZM137.452 21.6826C137.558 22.2247 137.204 22.75 136.662 22.856C136.321 22.9227 135.979 22.99 135.637 23.0577C135.095 23.165 134.569 22.8128 134.462 22.271C134.355 21.7293 134.707 21.2031 135.249 21.0958C135.592 21.0278 135.935 20.9602 136.278 20.8931C136.82 20.7871 137.346 21.1406 137.452 21.6826ZM124.118 24.3695C124.224 24.9115 123.871 25.4369 123.329 25.543C122.986 25.6101 122.643 25.6767 122.3 25.7428C121.758 25.8473 121.234 25.4923 121.129 24.95C121.025 24.4077 121.379 23.8834 121.922 23.7789C122.262 23.7132 122.603 23.647 122.945 23.5802C123.487 23.4741 124.012 23.8275 124.118 24.3695ZM110.713 26.6493C110.778 27.1977 110.386 27.6951 109.838 27.7602C109.664 27.7809 109.49 27.8011 109.316 27.8209L108.839 27.8752C108.29 27.9374 107.795 27.543 107.733 26.9942C107.671 26.4455 108.065 25.9501 108.614 25.8879L109.09 25.8338C109.26 25.8144 109.431 25.7945 109.602 25.7742C110.15 25.7091 110.648 26.1008 110.713 26.6493ZM98.2858 28.0669C98.3528 28.6151 97.9627 29.1138 97.4145 29.1808C97.0976 29.2196 96.781 29.2587 96.4647 29.2982C95.9166 29.3667 95.4169 28.9779 95.3484 28.4299C95.28 27.8819 95.6687 27.3821 96.2167 27.3136C96.5349 27.2739 96.8532 27.2346 97.1718 27.1956C97.72 27.1286 98.2188 27.5187 98.2858 28.0669ZM186.321 28.2013C186.713 27.8123 187.347 27.815 187.735 28.2071C187.863 28.3358 187.99 28.4659 188.117 28.5975C188.246 28.7319 188.374 28.8668 188.5 29.0022C188.877 29.4059 188.856 30.0386 188.452 30.4156C188.048 30.7926 187.416 30.7711 187.039 30.3675C186.919 30.239 186.797 30.111 186.675 29.9835C186.555 29.8594 186.436 29.7367 186.315 29.6155C185.926 29.2233 185.929 28.5902 186.321 28.2013ZM85.9449 29.8312C86.0445 30.3745 85.6848 30.8955 85.1415 30.9951C84.8291 31.0523 84.5172 31.1105 84.2059 31.1698C83.6633 31.2731 83.1398 30.9171 83.0365 30.3745C82.9332 29.832 83.2892 29.3084 83.8318 29.2051C84.1478 29.145 84.4642 29.0859 84.7811 29.0278C85.3243 28.9283 85.8454 29.288 85.9449 29.8312ZM73.8014 32.624C73.965 33.1515 73.67 33.7117 73.1425 33.8753C72.8407 33.9689 72.5397 34.0642 72.2395 34.1612C71.714 34.331 71.1503 34.0426 70.9804 33.5171C70.8106 32.9916 71.099 32.4279 71.6245 32.2581C71.9324 32.1586 72.2409 32.0609 72.5501 31.965C73.0776 31.8015 73.6379 32.0965 73.8014 32.624ZM62.2032 37.153C62.4595 37.6421 62.2708 38.2465 61.7816 38.5029C61.5033 38.6487 61.226 38.7968 60.9497 38.9474C60.4648 39.2116 59.8574 39.0327 59.5932 38.5477C59.3289 38.0627 59.5079 37.4554 59.9929 37.1911C60.2787 37.0354 60.5655 36.8821 60.8533 36.7314C61.3425 36.475 61.9468 36.6638 62.2032 37.153ZM194.337 39.537C194.847 39.3252 195.432 39.5669 195.644 40.077C195.785 40.4168 195.921 40.7584 196.053 41.1016C196.25 41.6175 195.991 42.1956 195.475 42.3927C194.96 42.5898 194.382 42.3314 194.184 41.8155C194.06 41.4899 193.931 41.1661 193.797 40.8441C193.585 40.3341 193.827 39.7489 194.337 39.537ZM51.7577 43.9137C52.1155 44.3344 52.0646 44.9655 51.6439 45.3234C51.524 45.4254 51.4043 45.5281 51.2849 45.6314L50.9301 45.9385C50.5125 46.3 49.881 46.2544 49.5196 45.8368C49.1582 45.4191 49.2038 44.7876 49.6214 44.4262L49.9758 44.1195C50.0996 44.0122 50.2237 43.9058 50.348 43.8C50.7687 43.4421 51.3998 43.493 51.7577 43.9137ZM42.4768 51.9539C42.8422 52.3681 42.8026 53 42.3884 53.3654C42.1533 53.5728 41.9181 53.7806 41.6829 53.9889C41.2695 54.3551 40.6375 54.3168 40.2713 53.9034C39.9051 53.49 39.9434 52.858 40.3568 52.4918C40.5931 52.2825 40.8293 52.0738 41.0654 51.8655C41.4796 51.5001 42.1115 51.5397 42.4768 51.9539ZM197.743 53.0255C198.293 52.9827 198.774 53.3944 198.817 53.945C198.845 54.3068 198.87 54.6695 198.891 55.0333C198.924 55.5846 198.503 56.0579 197.952 56.0904C197.401 56.1229 196.927 55.7023 196.895 55.151C196.874 54.7994 196.85 54.4491 196.823 54.1C196.78 53.5493 197.192 53.0683 197.743 53.0255ZM33.3922 60.2057C33.7742 60.6045 33.7606 61.2375 33.3618 61.6196C33.1357 61.8362 32.9101 62.0533 32.685 62.2709C32.2879 62.6547 31.6548 62.644 31.271 62.2469C30.8871 61.8498 30.8979 61.2167 31.295 60.8329C31.5222 60.6132 31.75 60.394 31.9783 60.1753C32.3771 59.7933 33.0101 59.8069 33.3922 60.2057ZM197.57 66.9718C198.118 67.0327 198.514 67.5271 198.453 68.076C198.413 68.4354 198.371 68.7953 198.328 69.1556C198.261 69.7039 197.763 70.0944 197.215 70.028C196.666 69.9615 196.276 69.4631 196.342 68.9149C196.385 68.5611 196.426 68.208 196.465 67.8555C196.526 67.3066 197.021 66.9109 197.57 66.9718ZM24.7783 68.9431C25.1896 69.3117 25.2243 69.9439 24.8558 70.3552C24.6469 70.5883 24.4392 70.8219 24.2327 71.0559C23.8673 71.47 23.2354 71.5096 22.8213 71.1442C22.4071 70.7788 22.3676 70.1468 22.733 69.7327C22.9429 69.4948 23.154 69.2574 23.3662 69.0206C23.7348 68.6093 24.367 68.5746 24.7783 68.9431ZM17.034 78.4578C17.4881 78.7721 17.6014 79.395 17.2871 79.8491C17.1101 80.1049 16.935 80.3612 16.7619 80.6179C16.4532 81.0759 15.8317 81.1969 15.3737 80.8882C14.9158 80.5795 14.7948 79.958 15.1035 79.5C15.2813 79.2364 15.461 78.9733 15.6426 78.7109C15.9569 78.2568 16.5799 78.1434 17.034 78.4578ZM195.373 80.7648C195.914 80.8783 196.26 81.4085 196.146 81.949C196.072 82.3013 195.998 82.6536 195.922 83.0059C195.806 83.5459 195.274 83.8896 194.734 83.7735C194.194 83.6575 193.85 83.1257 193.966 82.5858C194.042 82.2363 194.116 81.887 194.189 81.5379C194.303 80.9974 194.833 80.6513 195.373 80.7648ZM10.8452 89.0322C11.3525 89.2504 11.5869 89.8386 11.3686 90.3459C11.2463 90.6304 11.1269 90.9154 11.0105 91.2009C10.8021 91.7123 10.2185 91.958 9.70708 91.7495C9.19563 91.5411 8.95 90.9575 9.15843 90.4461C9.2797 90.1485 9.40406 89.8517 9.53144 89.5556C9.74968 89.0483 10.3379 88.8139 10.8452 89.0322ZM192.24 94.3808C192.776 94.5126 193.104 95.0542 192.972 95.5905L192.716 96.6334C192.584 97.1697 192.042 97.4975 191.506 97.3655C190.97 97.2336 190.642 96.6918 190.774 96.1555L191.03 95.1133C191.162 94.577 191.703 94.249 192.24 94.3808ZM7.33812 100.752C7.88694 100.814 8.28176 101.309 8.21998 101.858C8.18582 102.161 8.15555 102.465 8.12923 102.77C8.08169 103.32 7.59709 103.728 7.04686 103.68C6.49662 103.633 6.08911 103.148 6.13665 102.598C6.16447 102.276 6.19646 101.955 6.23254 101.634C6.29431 101.085 6.7893 100.69 7.33812 100.752ZM188.972 107.965C189.511 108.084 189.852 108.618 189.733 109.157C189.694 109.33 189.656 109.504 189.618 109.677C189.585 109.828 189.552 109.979 189.52 110.131C189.403 110.671 188.87 111.014 188.331 110.897C187.791 110.78 187.448 110.247 187.565 109.708C187.598 109.555 187.631 109.402 187.665 109.25C187.703 109.075 187.741 108.9 187.78 108.725C187.899 108.186 188.433 107.846 188.972 107.965ZM7.72723 112.959C8.26489 112.832 8.80308 113.166 8.92931 113.704C8.9646 113.854 9.00094 114.004 9.03834 114.155C9.07533 114.304 9.11323 114.452 9.15204 114.6C9.29266 115.134 8.9737 115.681 8.43962 115.821C7.90554 115.962 7.35858 115.643 7.21796 115.109C7.17675 114.952 7.13651 114.795 7.09725 114.637C7.05781 114.478 7.01948 114.319 6.98224 114.161C6.85602 113.623 7.18956 113.085 7.72723 112.959ZM186.518 119.977C187.061 120.081 187.417 120.605 187.313 121.147L187.137 122.068C187.034 122.611 186.51 122.967 185.967 122.863C185.425 122.76 185.069 122.236 185.172 121.694L185.348 120.772C185.452 120.23 185.976 119.874 186.518 119.977ZM12.3075 124.111C12.7564 123.789 13.3811 123.892 13.7029 124.341C13.8778 124.585 14.0563 124.826 14.2382 125.065C14.5733 125.504 14.4892 126.131 14.0502 126.466C13.6112 126.801 12.9837 126.717 12.6485 126.278C12.4545 126.024 12.2641 125.767 12.0774 125.506C11.7556 125.058 11.8587 124.433 12.3075 124.111ZM184.195 131.953C184.736 132.065 185.084 132.594 184.972 133.135C184.909 133.442 184.845 133.749 184.781 134.056C184.667 134.597 184.137 134.943 183.597 134.83C183.056 134.717 182.71 134.187 182.823 133.646C182.887 133.341 182.95 133.036 183.013 132.731C183.125 132.19 183.654 131.842 184.195 131.953ZM20.7265 132.734C21.0445 132.282 21.6683 132.174 22.1199 132.492C22.3683 132.667 22.6192 132.84 22.8726 133.011C23.3304 133.32 23.4511 133.942 23.1421 134.399C22.8331 134.857 22.2116 134.978 21.7538 134.669C21.4896 134.49 21.2278 134.31 20.9684 134.127C20.5169 133.809 20.4085 133.186 20.7265 132.734ZM31.2087 138.761C31.4335 138.257 32.0248 138.03 32.5292 138.255C32.8094 138.38 33.0911 138.504 33.3741 138.626C33.8808 138.846 34.1134 139.435 33.8936 139.942C33.6738 140.448 33.0849 140.681 32.5782 140.461C32.2891 140.336 32.0013 140.209 31.7148 140.082C31.2104 139.857 30.9838 139.265 31.2087 138.761ZM42.4798 143.19C42.6576 142.667 43.2256 142.387 43.7485 142.565C44.0407 142.665 44.3336 142.763 44.6271 142.862C45.1507 143.038 45.4328 143.604 45.2571 144.128C45.0814 144.652 44.5146 144.934 43.991 144.758C43.695 144.659 43.3996 144.559 43.1048 144.459C42.5819 144.281 42.3021 143.713 42.4798 143.19ZM181.49 143.846C182.023 143.988 182.341 144.536 182.198 145.07C182.117 145.375 182.035 145.68 181.951 145.983C181.806 146.516 181.256 146.83 180.723 146.684C180.19 146.538 179.877 145.988 180.022 145.456C180.104 145.156 180.186 144.855 180.266 144.554C180.408 144.021 180.956 143.703 181.49 143.846ZM54.0043 146.917C54.1694 146.39 54.7305 146.097 55.2575 146.262L56.147 146.541C56.674 146.706 56.967 147.267 56.8016 147.794C56.6362 148.321 56.075 148.614 55.548 148.449L54.6595 148.17C54.1325 148.005 53.8391 147.444 54.0043 146.917ZM65.5303 150.643C65.7129 150.121 66.2834 149.847 66.8047 150.029C67.0995 150.133 67.3937 150.237 67.6874 150.341C68.2077 150.526 68.4794 151.098 68.2942 151.618C68.1091 152.139 67.5371 152.41 67.0168 152.225C66.7265 152.122 66.4354 152.019 66.1436 151.917C65.6224 151.734 65.3478 151.164 65.5303 150.643ZM76.8087 155.045C77.0426 154.545 77.6377 154.329 78.1381 154.563C78.2798 154.629 78.4212 154.696 78.5623 154.763C78.7248 154.84 78.8871 154.917 79.0494 154.995C79.547 155.235 79.7561 155.832 79.5166 156.33C79.277 156.828 78.6793 157.037 78.1817 156.797C78.023 156.721 77.8643 156.645 77.7056 156.57C77.5678 156.504 77.4297 156.439 77.2913 156.375C76.791 156.141 76.5749 155.546 76.8087 155.045ZM177.864 155.49C178.379 155.691 178.634 156.271 178.433 156.785C178.318 157.08 178.202 157.374 178.084 157.667C177.877 158.179 177.295 158.427 176.782 158.221C176.27 158.014 176.022 157.432 176.228 156.919C176.344 156.634 176.457 156.347 176.57 156.059C176.77 155.544 177.35 155.29 177.864 155.49ZM89.0157 161.6C89.3033 161.128 89.9186 160.979 90.3901 161.267C90.696 161.453 91.0016 161.641 91.3071 161.829C91.7772 162.119 91.9234 162.735 91.6336 163.205C91.3438 163.675 90.7278 163.821 90.2576 163.531C89.9547 163.345 89.6517 163.159 89.3487 162.974C88.8772 162.686 88.7281 162.071 89.0157 161.6ZM172.648 166.498C173.116 166.791 173.259 167.408 172.966 167.876C172.796 168.147 172.624 168.416 172.45 168.683C172.149 169.146 171.529 169.277 171.066 168.975C170.604 168.674 170.473 168.054 170.774 167.592C170.942 167.335 171.107 167.076 171.27 166.815C171.563 166.347 172.18 166.205 172.648 166.498ZM100.787 169.059C101.086 168.595 101.705 168.461 102.169 168.76C102.469 168.954 102.77 169.148 103.07 169.341C103.534 169.64 103.669 170.258 103.37 170.723C103.071 171.187 102.452 171.322 101.988 171.023C101.687 170.829 101.386 170.635 101.085 170.441C100.621 170.142 100.487 169.523 100.787 169.059ZM165.106 176.039C165.475 176.45 165.441 177.082 165.03 177.451C164.792 177.665 164.551 177.876 164.307 178.085C163.887 178.443 163.256 178.394 162.897 177.974C162.538 177.554 162.588 176.923 163.008 176.564C163.239 176.367 163.468 176.166 163.694 175.963C164.105 175.594 164.737 175.628 165.106 176.039ZM112.615 176.426C112.889 175.946 113.5 175.78 113.979 176.054C114.289 176.231 114.598 176.406 114.908 176.58C115.389 176.85 115.561 177.46 115.29 177.941C115.02 178.423 114.411 178.594 113.929 178.324C113.615 178.148 113.301 177.97 112.987 177.79C112.507 177.516 112.341 176.905 112.615 176.426ZM125.081 182.636C125.276 182.12 125.853 181.859 126.369 182.053C126.699 182.178 127.028 182.298 127.357 182.416C127.877 182.601 128.149 183.173 127.963 183.693C127.778 184.214 127.206 184.485 126.686 184.3C126.345 184.178 126.004 184.053 125.664 183.925C125.147 183.73 124.886 183.153 125.081 182.636ZM155.053 182.853C155.272 183.36 155.038 183.949 154.531 184.168C154.383 184.232 154.234 184.296 154.084 184.358C153.911 184.431 153.739 184.501 153.567 184.57C153.054 184.775 152.472 184.526 152.267 184.013C152.062 183.5 152.311 182.918 152.824 182.713C152.986 182.648 153.149 182.581 153.312 182.513C153.38 182.485 153.448 182.456 153.515 182.428C153.59 182.396 153.664 182.364 153.738 182.332C154.245 182.113 154.833 182.346 155.053 182.853ZM138.568 185.926C138.592 185.374 139.058 184.946 139.61 184.969C139.956 184.984 140.303 184.994 140.65 184.998C141.202 185.004 141.645 185.457 141.638 186.009C141.632 186.562 141.179 187.004 140.627 186.998C140.259 186.993 139.891 186.983 139.524 186.968C138.972 186.944 138.544 186.477 138.568 185.926Z" fill="#424242"/>
<path d="M7 13C7 11.8954 7.89543 11 9 11H75C76.1046 11 77 11.8954 77 13V82C77 83.1046 76.1046 84 75 84H9C7.89543 84 7 83.1046 7 82V13Z" fill="#D9D9D9"/>
<path d="M2 9C2 7.89543 2.89543 7 4 7H70C71.1046 7 72 7.89543 72 9V78C72 79.1046 71.1046 80 70 80H4C2.89543 80 2 79.1046 2 78V9Z" fill="white"/>
<path fill-rule="evenodd" clip-rule="evenodd" d="M70 8H4C3.44772 8 3 8.44772 3 9V78C3 78.5523 3.44772 79 4 79H70C70.5523 79 71 78.5523 71 78V9C71 8.44772 70.5523 8 70 8ZM4 7C2.89543 7 2 7.89543 2 9V78C2 79.1046 2.89543 80 4 80H70C71.1046 80 72 79.1046 72 78V9C72 7.89543 71.1046 7 70 7H4Z" fill="#D9D9D9"/>
<path d="M10 13.5C10 14.3284 9.32843 15 8.5 15C7.67157 15 7 14.3284 7 13.5C7 12.6716 7.67157 12 8.5 12C9.32843 12 10 12.6716 10 13.5Z" fill="#D92B04"/>
<path d="M16 13.5C16 14.3284 15.3284 15 14.5 15C13.6716 15 13 14.3284 13 13.5C13 12.6716 13.6716 12 14.5 12C15.3284 12 16 12.6716 16 13.5Z" fill="#F29F05"/>
<path d="M22 13.5C22 14.3284 21.3284 15 20.5 15C19.6716 15 19 14.3284 19 13.5C19 12.6716 19.6716 12 20.5 12C21.3284 12 22 12.6716 22 13.5Z" fill="#038C73"/>
<g opacity="0.8">
<path d="M8 25H23V27H8V25Z" fill="#D9D9D9"/>
<path d="M25.5 25H28V27H25.5V25Z" fill="#038C73"/>
<path d="M8 32H23V34H8V32Z" fill="#D9D9D9"/>
<path d="M25.5 32H28V34H25.5V32Z" fill="#D92B04"/>
<path d="M8 39H23V41H8V39Z" fill="#D9D9D9"/>
<path d="M25.5 39H28V41H25.5V39Z" fill="#038C73"/>
<path d="M8 46H23V48H8V46Z" fill="#D9D9D9"/>
<path d="M25.5 46H28V48H25.5V46Z" fill="#038C73"/>
<path d="M8 53H23V55H8V53Z" fill="#D9D9D9"/>
<path d="M25.5 53H28V55H25.5V53Z" fill="#D92B04"/>
<path d="M8 60H23V62H8V60Z" fill="#D9D9D9"/>
<path d="M25.5 60H28V62H25.5V60Z" fill="#D92B04"/>
<path d="M8 67H23V69H8V67Z" fill="#D9D9D9"/>
<path d="M25.5 67H28V69H25.5V67Z" fill="#038C73"/>
<path fill-rule="evenodd" clip-rule="evenodd" d="M55.4088 53.5248C55.1474 53.7991 54.8103 53.9999 54.4 53.9999C53.1404 53.9999 52.3521 52.9411 51.8067 51.7925C51.3185 50.7646 50.9301 49.4612 50.5573 48.2103C50.5006 48.02 50.4442 47.8309 50.3879 47.6442C49.9496 46.19 49.5189 44.894 48.9621 44.0788C48.6883 43.6779 48.4175 43.4452 48.1505 43.345C47.9008 43.2514 47.5838 43.2472 47.1455 43.4527C46.3163 43.8414 45.7875 44.8629 45.4828 46.4608C45.184 48.0283 45.1334 49.9685 45.0999 51.9459C45.0977 52.0797 45.0955 52.2136 45.0933 52.3476C45.0636 54.1701 45.0336 56.0031 44.8024 57.4908C44.678 58.291 44.4908 59.0259 44.1946 59.6219C43.8963 60.2222 43.4689 60.7165 42.8531 60.9639C41.9081 61.3436 41.1794 61.4785 40.6028 61.2553C40.0035 61.0232 39.7361 60.4681 39.5401 60.0087C39.4986 59.9114 39.4578 59.8117 39.4162 59.7101C39.0465 58.807 38.6156 57.7542 37.0972 56.9407C36.8152 56.7897 36.5803 56.7655 36.3731 56.8099C36.156 56.8563 35.9189 56.989 35.6642 57.2375C35.1447 57.7445 34.6527 58.6339 34.2129 59.7682C33.3403 62.0188 32.7602 64.999 32.496 67.0635C32.4609 67.3374 32.2104 67.531 31.9365 67.496C31.6626 67.4609 31.469 67.2104 31.504 66.9365C31.7731 64.8344 32.3664 61.7645 33.2805 59.4068C33.734 58.237 34.2886 57.1826 34.9658 56.5218C35.3095 56.1865 35.7081 55.9294 36.164 55.832C36.6297 55.7324 37.1048 55.8103 37.5694 56.0593C39.4145 57.0477 39.9662 58.4057 40.3428 59.3324C40.3834 59.4324 40.4219 59.5273 40.4599 59.6162C40.6639 60.0943 40.7965 60.2579 40.9639 60.3227C41.154 60.3963 41.5586 60.4063 42.4803 60.036C42.7978 59.9084 43.0704 59.637 43.2991 59.1768C43.53 58.7122 43.697 58.0916 43.8143 57.3372C44.0344 55.9212 44.0634 54.1555 44.0938 52.3072C44.0959 52.1815 44.0979 52.0554 44.1001 51.929C44.1333 49.9689 44.1827 47.9403 44.5005 46.2735C44.8125 44.637 45.417 43.1585 46.7211 42.5472C47.3495 42.2526 47.9492 42.2016 48.5016 42.4087C49.0366 42.6094 49.4534 43.0251 49.7879 43.5148C50.4478 44.4809 50.9171 45.9349 51.3454 47.3556C51.4035 47.5483 51.4609 47.7407 51.518 47.9322C51.8942 49.1929 52.2578 50.4113 52.71 51.3636C53.2479 52.4962 53.7929 52.9999 54.4 52.9999C54.4564 52.9999 54.5485 52.9781 54.6849 52.8349C54.8269 52.6859 54.9822 52.4391 55.1421 52.0746C55.461 51.3472 55.7443 50.2782 56.0097 48.9489C56.3764 47.1119 56.6946 44.8565 57.0335 42.4541C57.1847 41.3826 57.34 40.2818 57.5055 39.1759C58.0386 35.6151 58.6773 32.0097 59.628 29.2882C60.1028 27.929 60.668 26.7521 61.364 25.9068C62.0665 25.0537 62.9373 24.5 64 24.5C64.2761 24.5 64.5 24.7239 64.5 25C64.5 25.2761 64.2761 25.5 64 25.5C63.3293 25.5 62.7169 25.8369 62.136 26.5424C61.5487 27.2557 61.0306 28.3053 60.572 29.618C59.656 32.2403 59.0281 35.7598 58.4945 39.324C58.3325 40.4061 58.1791 41.4932 58.0289 42.5579C57.6877 44.9761 57.3628 47.2788 56.9903 49.1447C56.7223 50.4873 56.4224 51.6448 56.0579 52.4761C55.8761 52.8908 55.6648 53.2563 55.4088 53.5248Z" fill="#F29F05"/>
</g>
<path d="M44 39C44 36.7909 45.7909 35 48 35H176C178.209 35 180 36.7909 180 39V167C180 169.209 178.209 171 176 171H48C45.7909 171 44 169.209 44 167V39Z" fill="#D9D9D9"/>
<path d="M36 31C36 28.7909 37.7909 27 40 27H169C171.209 27 173 28.7909 173 31V159C173 161.209 171.209 163 169 163H40C37.7909 163 36 161.209 36 159V31Z" fill="white"/>
<path fill-rule="evenodd" clip-rule="evenodd" d="M169 29H40C38.8955 29 38 29.8954 38 31V159C38 160.105 38.8955 161 40 161H169C170.105 161 171 160.105 171 159V31C171 29.8954 170.105 29 169 29ZM40 27C37.7909 27 36 28.7909 36 31V159C36 161.209 37.7909 163 40 163H169C171.209 163 173 161.209 173 159V31C173 28.7909 171.209 27 169 27H40Z" fill="#D9D9D9"/>
<path d="M5.25039 128.115C5.25472 128.076 5.25616 128.056 5.25616 128.056L5.29367 128.071C18.9795 134.052 30.1814 128.792 31.3959 128.038L31.4104 128.028C33.1254 128.75 44.0951 134.032 57.8516 128.001C57.8516 128.001 60.373 157.669 45.2462 174.674L42.2661 177.644C39.2529 180.299 35.6713 182.495 31.4147 184.01L31.3959 184.003C1.21302 173.44 5.07442 129.936 5.25039 128.115Z" fill="white"/>
<path fill-rule="evenodd" clip-rule="evenodd" d="M45.7412 144.206C46.732 145.168 46.7556 146.75 45.794 147.741L29.294 164.741C28.8232 165.226 28.176 165.5 27.5 165.5C26.824 165.5 26.1769 165.226 25.706 164.741L18.206 157.014C17.2444 156.023 17.268 154.44 18.2588 153.479C19.2496 152.517 20.8323 152.541 21.794 153.532L27.5 159.41L42.2061 144.259C43.1677 143.268 44.7504 143.244 45.7412 144.206Z" fill="#038C73"/>
<path d="M0.296711 123.135C0.301853 123.089 0.30357 123.065 0.30357 123.065L0.348145 123.084C16.6136 130.217 29.927 123.943 31.3704 123.045L31.3876 123.033C33.4259 123.893 46.4633 130.193 62.8127 123C62.8127 123 65.8093 158.381 47.8313 178.661L44.2895 182.203C40.7083 185.37 36.4516 187.988 31.3927 189.795L31.3704 189.787C-4.50166 177.19 0.0875626 125.308 0.296711 123.135ZM6.66025 141.745C7.23626 146.825 8.28028 152.47 10.1266 157.985C13.1524 167.031 18.3382 175.729 27.1549 181.017C28.1921 181.641 29.2807 182.217 30.4224 182.74C30.7344 182.886 31.0498 183.024 31.3704 183.162C31.4287 183.187 31.4836 183.213 31.5418 183.239C50.8039 174.925 55.5131 151.329 56.504 136.415C56.6309 134.568 56.7011 132.852 56.7303 131.314C53.4679 132.065 50.1627 132.444 46.8387 132.444C39.9077 132.444 34.5059 130.82 31.3738 129.632H31.3704C28.0224 130.969 22.5811 132.49 15.9364 132.49C12.5952 132.49 9.27802 132.111 6.01053 131.36V131.437L5.99853 131.434C6.03967 134.337 6.21281 137.877 6.66025 141.745Z" fill="#F29F05"/>
<path d="M172.58 117.627C173.216 117.242 174.014 117.242 174.651 117.627L197.433 131.416C198.031 131.779 198.397 132.428 198.397 133.127V160.873C198.397 161.573 198.031 162.221 197.433 162.584L174.651 176.373C174.014 176.759 173.216 176.759 172.58 176.373L149.798 162.584C149.199 162.221 148.834 161.573 148.834 160.873V133.127C148.834 132.428 149.199 131.779 149.798 131.416L172.58 117.627Z" fill="white"/>
<path fill-rule="evenodd" clip-rule="evenodd" d="M172.062 116.771C173.017 116.193 174.214 116.193 175.169 116.771L197.951 130.561C198.848 131.104 199.397 132.078 199.397 133.127V160.873C199.397 161.922 198.848 162.896 197.951 163.439L175.169 177.229C174.214 177.807 173.017 177.807 172.062 177.229L149.28 163.439C148.382 162.896 147.834 161.922 147.834 160.873V133.127C147.834 132.078 148.382 131.104 149.28 130.561L172.062 116.771ZM174.133 118.482C173.815 118.29 173.416 118.29 173.098 118.482L150.316 132.272C150.017 132.453 149.834 132.777 149.834 133.127V160.873C149.834 161.223 150.017 161.547 150.316 161.728L173.098 175.518C173.416 175.71 173.815 175.71 174.133 175.518L196.915 161.728C197.214 161.547 197.397 161.223 197.397 160.873V133.127C197.397 132.777 197.214 132.453 196.915 132.272L174.133 118.482Z" fill="#D92B04"/>
<path d="M169.944 138.947C169.096 139.923 168.582 141.193 168.582 142.579V145.02H167.583C167.261 145.02 167 145.279 167 145.597V156.423C167 156.742 167.261 157 167.583 157H180.861C181.016 157 181.155 156.94 181.259 156.843C181.374 156.738 181.444 156.589 181.444 156.423V145.597C181.444 145.279 181.182 145.02 180.861 145.02H179.863V142.579C179.863 139.503 177.332 137 174.222 137C172.513 137 170.98 137.755 169.944 138.947ZM171.275 145.02V142.579C171.275 140.973 172.597 139.664 174.222 139.664C175.848 139.664 177.17 140.973 177.17 142.579V145.02H171.275ZM173.312 151.609C172.909 151.327 172.647 150.862 172.647 150.337C172.647 149.476 173.351 148.779 174.222 148.779C175.093 148.779 175.797 149.476 175.797 150.337C175.797 150.862 175.534 151.327 175.132 151.609V153.914C175.132 154.114 174.967 154.278 174.763 154.278H173.68C173.477 154.278 173.312 154.114 173.312 153.914V151.609Z" fill="#D92B04"/>
<path d="M128.376 104.989C127.708 104.989 127.151 105.546 127.151 106.214V111.337C127.151 114.511 124.59 117.072 121.416 117.072H115.848C115.18 117.072 114.623 117.629 114.623 118.297C114.623 118.965 115.18 119.521 115.848 119.521H121.416C125.926 119.521 129.601 115.847 129.601 111.337V106.214C129.601 105.546 129.044 104.989 128.376 104.989Z" fill="#0487D9"/>
<path d="M121.416 69.5215H115.848C115.18 69.5215 114.623 70.0784 114.623 70.7464C114.623 71.4144 115.18 71.9714 115.848 71.9714H121.416C124.59 71.9714 127.151 74.5328 127.151 77.7063V83.6641C127.151 84.3322 127.708 84.8891 128.376 84.8891C129.044 84.8891 129.601 84.3321 129.601 83.6641V77.7063C129.601 73.1964 125.926 69.5215 121.416 69.5215Z" fill="#0487D9"/>
<path d="M115.124 93.9092C115.959 93.9092 116.628 93.2412 116.683 92.4058V88.3969C116.683 87.5059 116.015 86.8379 115.124 86.8379C114.233 86.8379 113.565 87.5618 113.565 88.3969V92.3503C113.565 93.2413 114.289 93.9093 115.124 93.9093V93.9092Z" fill="#0487D9"/>
<path d="M112.229 104.711C110.225 106.716 107.552 107.829 104.824 107.829H104.378C101.594 107.829 98.9775 106.716 96.9731 104.711C96.5276 104.21 95.7481 104.21 95.2471 104.711C94.7461 105.157 94.7461 105.936 95.2471 106.437C97.7526 108.943 100.982 110.279 104.378 110.279H104.824C108.22 110.279 111.505 108.943 113.955 106.437C114.456 105.992 114.456 105.212 113.955 104.711C113.51 104.21 112.731 104.21 112.229 104.711H112.229Z" fill="#0487D9"/>
<path d="M101.539 101.315H101.817C104.323 101.315 106.327 99.3101 106.327 96.8601V88.3968C106.327 87.7288 105.77 87.1719 105.102 87.1719C104.434 87.1719 103.877 87.7288 103.877 88.3968V96.8042C103.877 97.9737 102.931 98.8643 101.817 98.8643H101.539C100.871 98.8643 100.314 99.4212 100.314 100.089C100.314 100.758 100.871 101.315 101.539 101.315Z" fill="#0487D9"/>
<path d="M93.2983 86.8379C92.4073 86.8379 91.7393 87.5618 91.7393 88.3969V92.3503C91.7393 93.2413 92.4632 93.9093 93.2983 93.9093C94.1892 93.9093 94.8573 93.2413 94.8573 92.4059V88.397C94.8573 87.5064 94.1333 86.838 93.2983 86.838V86.8379Z" fill="#0487D9"/>
<path d="M80.8263 84.8891C81.4943 84.8891 82.0512 84.3321 82.0512 83.6641V77.7063C82.0512 74.5324 84.6126 71.9714 87.7861 71.9714H93.354C94.022 71.9714 94.579 71.4144 94.579 70.7464C94.579 70.0784 94.022 69.5215 93.354 69.5215H87.7861C83.2762 69.5215 79.6013 73.1964 79.6013 77.7063V83.6641C79.6013 84.3322 80.1583 84.8891 80.8263 84.8891Z" fill="#0487D9"/>
<path d="M93.2983 117.072H87.7304C84.5565 117.072 81.9955 114.51 81.9955 111.337V106.214C81.9955 105.546 81.4385 104.989 80.7705 104.989C80.1025 104.989 79.5456 105.546 79.5456 106.214V111.337C79.5456 115.847 83.2205 119.521 87.7304 119.521H93.2983C94.0222 119.521 94.5232 118.965 94.5232 118.297C94.5232 117.628 93.9663 117.072 93.2983 117.072Z" fill="#0487D9"/>
<path d="M180 25C180 38.8071 168.807 50 155 50C141.193 50 130 38.8071 130 25C130 11.1929 141.193 0 155 0C168.807 0 180 11.1929 180 25Z" fill="white"/>
<path fill-rule="evenodd" clip-rule="evenodd" d="M155 48C167.703 48 178 37.7025 178 25C178 12.2975 167.703 2 155 2C142.297 2 132 12.2975 132 25C132 37.7025 142.297 48 155 48ZM155 50C168.807 50 180 38.8071 180 25C180 11.1929 168.807 0 155 0C141.193 0 130 11.1929 130 25C130 38.8071 141.193 50 155 50Z" fill="#7E60BF"/>
<path fill-rule="evenodd" clip-rule="evenodd" d="M159.564 9.56344C159.951 9.62796 160.24 9.40179 160.235 9.02993L160.236 9.0306C160.232 8.72593 160.056 8.5523 159.68 8.46316C157.531 7.95228 155.367 7.86114 153.189 8.20639C151.514 8.47181 149.911 8.99135 148.388 9.77032C148.239 9.84615 148.084 10.0344 148.045 10.1994C147.938 10.6617 148.356 10.9537 148.822 10.7582C149.024 10.6733 149.224 10.5829 149.424 10.4925L149.424 10.4925L149.424 10.4924L149.424 10.4924L149.424 10.4924L149.424 10.4924L149.424 10.4923L149.424 10.4923L149.424 10.4923C149.717 10.3602 150.009 10.2281 150.308 10.1136C152.536 9.2601 154.837 8.94611 157.197 9.18227C157.755 9.2379 158.309 9.33856 158.862 9.4392L158.862 9.43921L158.862 9.43923C159.096 9.48177 159.33 9.52431 159.564 9.56344ZM155.848 10.3964C159.981 10.4303 163.534 11.9663 166.477 15.0323C166.552 15.1101 166.626 15.1899 166.688 15.2777C166.857 15.5179 166.839 15.7633 166.649 15.9709C166.459 16.1778 166.223 16.2077 165.992 16.0387C165.883 15.9593 165.787 15.8589 165.691 15.7597L165.691 15.7596L165.664 15.7307C163.332 13.3153 160.537 11.9144 157.287 11.5312C155.759 11.3509 154.241 11.46 152.738 11.8053C152.728 11.8076 152.718 11.8108 152.708 11.8139L152.708 11.8139C152.698 11.8171 152.688 11.8203 152.678 11.8226C152.296 11.9017 152.02 11.7541 151.953 11.4348C151.881 11.0968 152.069 10.8168 152.468 10.7449C153.192 10.6139 153.919 10.4902 154.65 10.4043C154.921 10.3723 155.197 10.3806 155.473 10.3889L155.473 10.3889C155.598 10.3926 155.723 10.3964 155.847 10.3964H155.848ZM156.678 13.8328L156.678 13.8328C156.143 13.8258 155.608 13.8188 155.075 13.8458C152.978 13.9516 151.056 14.6488 149.313 15.8668C147.502 17.1314 146.121 18.7991 145.18 20.8632C144.526 22.2954 144.166 23.8088 144.06 25.3907C144.058 25.4128 144.057 25.435 144.056 25.4571V25.4571C144.054 25.5014 144.053 25.5457 144.046 25.5896C143.995 25.9389 143.764 26.1544 143.476 26.1271C143.173 26.0985 142.965 25.8258 143.005 25.4626C143.022 25.3109 143.038 25.1588 143.053 25.0067C143.108 24.4768 143.163 23.946 143.27 23.4276C144.07 19.5581 146.106 16.6065 149.328 14.5669C151.577 13.1434 154.034 12.5912 156.642 12.7283C156.936 12.7436 157.229 12.7861 157.521 12.8287C157.918 12.8859 158.115 13.1074 158.081 13.4414C158.047 13.7713 157.815 13.9336 157.406 13.8398L157.405 13.8392C157.163 13.8392 156.92 13.836 156.678 13.8328ZM168 22.1432C167.883 22.4046 167.736 22.6315 167.419 22.6029C167.123 22.5763 167.002 22.3514 166.913 22.086C166.398 20.548 165.622 19.171 164.591 17.9517C164.543 17.8938 164.494 17.8352 164.453 17.772C164.281 17.5053 164.309 17.2226 164.522 17.0283C164.732 16.8374 165.026 16.8328 165.23 17.0689C165.561 17.4534 165.879 17.8519 166.172 18.2683C166.908 19.312 167.476 20.4515 167.885 21.6782C167.906 21.7412 167.934 21.8014 167.962 21.8616L167.962 21.8617L167.962 21.8619C167.975 21.8893 167.988 21.9166 168 21.9443V22.1432ZM156.146 40.8783C155.725 41.3473 155.74 41.6027 156.186 41.9999L156.186 42.0005H156.502C156.536 41.9721 156.572 41.9449 156.607 41.9176C156.681 41.8602 156.756 41.8028 156.818 41.7338C159.117 39.198 160.69 36.2464 161.458 32.8265C161.971 30.5402 161.962 28.2199 161.896 25.8963C161.884 25.4366 161.807 24.9703 161.696 24.5246C160.957 21.5264 158.222 19.5055 155.291 19.7709C152.335 20.0383 149.952 22.5223 149.731 25.6155C149.686 26.2313 149.687 26.8504 149.687 27.4697C149.687 27.8137 149.687 28.1577 149.68 28.5013C149.651 29.8403 149.237 31.0391 148.425 32.0695C148.109 32.4707 147.776 32.8577 147.443 33.2445C147.239 33.4817 147.036 33.7189 146.836 33.9594C146.581 34.2654 146.585 34.5947 146.825 34.8109C147.058 35.0217 147.356 34.9905 147.606 34.6991C147.723 34.562 147.841 34.4252 147.959 34.2884L147.96 34.2883L147.96 34.2883L147.96 34.2882L147.96 34.2881L147.96 34.288L147.96 34.2879L147.96 34.2879L147.96 34.2878L147.96 34.2877L147.96 34.2876L147.96 34.2875L147.96 34.2875L147.96 34.2874L147.96 34.2873L147.96 34.2872C148.429 33.7443 148.898 33.201 149.337 32.6323C150.032 31.7322 150.505 30.6938 150.619 29.541C150.709 28.6231 150.721 27.6951 150.733 26.7688L150.733 26.768L150.733 26.7672L150.733 26.7664C150.735 26.5765 150.738 26.3866 150.741 26.1969C150.79 23.2327 152.871 20.9796 155.687 20.8619C158.176 20.7581 160.506 22.7704 160.784 25.3621C160.877 26.2323 160.87 27.1159 160.862 27.998C160.86 28.2792 160.857 28.5602 160.858 28.8405C160.862 30.0838 160.708 31.3105 160.444 32.5218C159.747 35.7255 158.284 38.4929 156.146 40.8783ZM153.103 40.8982C152.707 41.3625 152.716 41.6033 153.153 41.9998L153.152 41.9978H153.468C153.515 41.9558 153.563 41.915 153.611 41.8743C153.718 41.7841 153.826 41.6938 153.918 41.5893C154.306 41.15 154.689 40.7057 155.072 40.2613L155.072 40.261L155.072 40.2607L155.073 40.2604L155.073 40.2602L155.073 40.2599L155.073 40.2596L155.074 40.2591C155.227 40.0811 155.381 39.9031 155.535 39.7254C157.573 37.3692 158.878 34.6331 159.431 31.4966C159.734 29.7822 159.699 28.0537 159.665 26.3276L159.658 25.9707C159.618 23.8426 157.887 22.1217 155.828 22.0931C153.796 22.0652 152.04 23.7848 151.947 25.9181C151.922 26.487 151.925 27.0571 151.927 27.6272V27.6273C151.928 27.8097 151.928 27.9922 151.928 28.1745C151.926 30.2533 151.333 32.1106 150.043 33.7005C149.698 34.1251 149.342 34.5395 148.987 34.954C148.778 35.1967 148.57 35.4395 148.364 35.6842C148.09 36.0095 148.076 36.3335 148.315 36.5623C148.549 36.7871 148.862 36.7386 149.139 36.4186C149.663 35.8132 150.187 35.2066 150.701 34.5919C151.951 33.0958 152.729 31.3663 152.898 29.3773C152.96 28.6446 152.961 27.906 152.963 27.1675V27.1674C152.963 26.8875 152.964 26.6075 152.968 26.3279C152.982 25.2815 153.325 24.3994 154.148 23.7781C155 23.1348 155.942 23.0158 156.9 23.4468C157.866 23.8819 158.48 24.6715 158.58 25.7884C158.65 26.573 158.643 27.3661 158.636 28.1562V28.1563L158.634 28.3402C158.625 29.5575 158.528 30.7669 158.266 31.959C157.738 34.3597 156.746 36.519 155.225 38.3963C154.725 39.0128 154.208 39.613 153.691 40.2131L153.691 40.2134C153.495 40.4413 153.299 40.6693 153.103 40.8982ZM156.126 34.6607C157.086 32.5552 157.488 30.3274 157.447 28.216L157.446 28.2167C157.446 27.961 157.446 27.7277 157.447 27.5095C157.448 27.0547 157.449 26.6658 157.445 26.2769C157.434 25.2145 156.736 24.4522 155.787 24.4595C154.854 24.4668 154.171 25.2279 154.163 26.2756C154.16 26.6204 154.161 26.965 154.161 27.3096C154.162 27.6179 154.163 27.9262 154.161 28.2346C154.146 30.8523 153.382 33.1905 151.764 35.1935C151.258 35.8191 150.735 36.4283 150.212 37.0376L150.212 37.0377C149.966 37.3238 149.72 37.6098 149.477 37.8976C149.459 37.9187 149.44 37.9395 149.422 37.9604L149.422 37.9605C149.362 38.0293 149.301 38.0983 149.25 38.1743C149.086 38.4205 149.106 38.7098 149.293 38.9001C149.492 39.103 149.779 39.1063 150.007 38.9067C150.055 38.8642 150.099 38.8149 150.141 38.7657C150.361 38.5094 150.581 38.2537 150.801 37.9981L150.801 37.998L150.801 37.9979L150.801 37.9977L150.801 37.9976L150.802 37.9975L150.802 37.9974L150.802 37.9973L150.802 37.9972L150.802 37.9971L150.802 37.9969L150.802 37.9968L150.802 37.9967L150.802 37.9966L150.802 37.9965C151.317 37.3996 151.831 36.8029 152.336 36.1973C154.12 34.0593 155.106 31.5794 155.186 28.7229C155.199 28.2221 155.203 27.721 155.206 27.2199V27.2197C155.208 26.9906 155.21 26.7615 155.212 26.5323C155.213 26.4969 155.212 26.4613 155.212 26.4257V26.4257C155.212 26.3505 155.211 26.2753 155.217 26.2004C155.244 25.8106 155.482 25.5525 155.806 25.5558C156.134 25.5591 156.379 25.8186 156.385 26.2084C156.396 26.9721 156.393 27.7357 156.39 28.4994C156.375 31.6825 155.427 34.5143 153.464 36.9477C152.946 37.5899 152.406 38.2128 151.866 38.8358L151.865 38.8365C151.611 39.1295 151.357 39.4226 151.106 39.7176L151.071 39.7579C151.018 39.818 150.966 39.8783 150.923 39.9452C150.76 40.1939 150.784 40.476 150.977 40.6696C151.164 40.8578 151.446 40.8645 151.666 40.6796C151.74 40.6177 151.805 40.5438 151.868 40.4707C152.038 40.2748 152.208 40.0792 152.379 39.8835L152.379 39.8829L152.379 39.8826C152.891 39.2944 153.403 38.7064 153.909 38.1131C154.798 37.0701 155.549 35.9266 156.126 34.6607ZM164.414 21.9003C165.139 23.4549 165.381 25.1113 165.344 26.6313L165.345 26.6307C165.345 26.8744 165.344 27.0986 165.343 27.3095V27.3106V27.3116V27.3126V27.3136V27.3145V27.3155V27.3164V27.3172V27.3181V27.3189V27.3196V27.3204C165.341 27.7713 165.339 28.1614 165.348 28.5512C165.36 29.0255 165.809 29.3075 166.132 29.0295C166.27 28.9104 166.367 28.6603 166.374 28.4654C166.394 27.9587 166.391 27.451 166.388 26.9433C166.387 26.7318 166.385 26.5202 166.386 26.3087C166.389 24.3696 166.002 22.5203 165.077 20.8419C163.019 17.1054 159.905 15.1856 155.799 15.0472C155.58 15.0399 155.357 15.0545 155.141 15.0938C154.864 15.1443 154.723 15.3466 154.733 15.6373C154.742 15.932 154.911 16.1043 155.181 16.1508C155.253 16.1631 155.328 16.1609 155.403 16.1586C155.466 16.1567 155.528 16.1548 155.59 16.1615C155.841 16.1891 156.095 16.208 156.348 16.227H156.348C156.926 16.2703 157.503 16.3136 158.057 16.4588C160.972 17.2225 163.09 19.0618 164.414 21.9003ZM146.284 21.3238C145.478 23.0593 145.169 24.9013 145.213 26.587L145.214 26.5883C145.214 26.8203 145.213 27.0273 145.212 27.2175V27.2175V27.2175V27.2176V27.2176V27.2176V27.2177V27.2177V27.2177V27.2178C145.211 27.6081 145.21 27.9276 145.215 28.2474C145.222 28.6445 145.1 28.9798 144.837 29.2665C144.647 29.4734 144.462 29.6862 144.291 29.9098C144.091 30.1699 144.11 30.4872 144.317 30.6867C144.531 30.8923 144.818 30.8856 145.053 30.6442C145.187 30.5061 145.312 30.358 145.438 30.21C145.501 30.1348 145.565 30.0595 145.63 29.9856C146.071 29.4814 146.276 28.8867 146.268 28.2021C146.26 27.5502 146.263 26.8977 146.267 26.2451C146.274 24.8481 146.519 23.5017 147.049 22.2152C147.483 21.1601 148.081 20.2202 148.81 19.3654C149.064 19.0667 149.055 18.7241 148.82 18.5126C148.58 18.295 148.281 18.3463 148.019 18.6496C147.321 19.4552 146.739 20.3439 146.284 21.3238ZM164.206 27.9067C164.183 28.242 164.161 28.5773 164.139 28.9126C164.085 29.7243 164.032 30.5359 163.969 31.3466C163.938 31.7524 163.693 31.9879 163.397 31.9526C163.085 31.9153 162.924 31.6646 162.938 31.2455C162.954 30.7988 162.971 30.3521 162.988 29.9053L162.988 29.9032C163.03 28.7818 163.072 27.6601 163.1 26.5384C163.149 24.5121 162.576 22.7047 161.312 21.1568C161.197 21.0168 161.074 20.8856 160.95 20.7543C160.873 20.6734 160.797 20.5925 160.723 20.5095C160.468 20.2248 160.444 19.9155 160.654 19.6833C160.873 19.4405 161.185 19.4585 161.463 19.7365C163.222 21.4974 164.115 23.6567 164.147 26.2084C164.152 26.5975 164.151 26.9869 164.15 27.3763C164.149 27.5516 164.149 27.7268 164.149 27.9021L164.205 27.9061L164.206 27.9067ZM147.463 25.8191C147.566 21.8311 150.508 18.2469 154.246 17.5611C154.28 17.5549 154.314 17.5481 154.347 17.5413L154.348 17.5413L154.348 17.5412C154.448 17.5209 154.55 17.5005 154.651 17.4965C154.939 17.4859 155.15 17.6702 155.189 17.9442C155.23 18.2303 155.096 18.4697 154.816 18.5516C154.653 18.5993 154.488 18.6371 154.322 18.6748L154.322 18.6748C154.149 18.7144 153.975 18.754 153.805 18.805C150.804 19.7051 148.694 22.483 148.525 25.7439C148.517 25.8982 148.507 26.0532 148.487 26.2069C148.447 26.5216 148.235 26.7264 147.967 26.7198C147.682 26.7125 147.476 26.483 147.463 26.151C147.46 26.0754 147.46 25.9996 147.461 25.9238C147.462 25.8888 147.462 25.8539 147.462 25.8191H147.463ZM150.459 11.5739L150.459 11.5739C150.409 11.5353 150.359 11.4967 150.316 11.4561L150.265 11.5133C150.252 11.5147 150.239 11.5155 150.225 11.5162L150.225 11.5162L150.225 11.5162C150.196 11.5178 150.167 11.5194 150.14 11.5286C150.05 11.5598 149.962 11.5951 149.876 11.6343C148.153 12.4086 146.623 13.4903 145.289 14.8686C144.859 15.3127 144.467 15.799 144.077 16.2836L143.983 16.4C143.765 16.67 143.806 17.002 144.034 17.1982C144.246 17.3798 144.542 17.3426 144.77 17.1044C144.812 17.0601 144.85 17.0116 144.887 16.9634L144.887 16.9634L144.887 16.9634L144.887 16.9634L144.887 16.9634L144.887 16.9634L144.887 16.9634L144.894 16.9541C146.354 15.0642 148.145 13.6307 150.266 12.6528C150.288 12.6428 150.311 12.633 150.335 12.6229C150.437 12.5802 150.547 12.5337 150.584 12.4545C150.67 12.2723 150.757 12.0355 150.712 11.8585C150.684 11.7479 150.572 11.6609 150.459 11.5739ZM148.492 28.6096C148.43 29.6194 148.117 30.5095 147.515 31.2712C147.129 31.7594 146.721 32.229 146.313 32.6984L146.112 32.9309C145.864 33.2169 145.559 33.2548 145.333 33.0526C145.083 32.8298 145.076 32.5131 145.33 32.2045L145.353 32.1766L145.353 32.1766L145.353 32.1766L145.353 32.1766L145.353 32.1766L145.353 32.1765C145.62 31.8512 145.888 31.5252 146.175 31.2199C146.932 30.4144 147.43 29.4917 147.47 28.3282C147.48 27.997 147.735 27.7867 148.012 27.8087C148.3 27.832 148.483 28.0555 148.492 28.3981C148.494 28.4513 148.493 28.5044 148.493 28.5511C148.493 28.5721 148.492 28.5918 148.492 28.6096H148.492ZM162.938 16.304C163.276 16.4597 163.644 16.2062 163.653 15.6794V15.6787C163.634 15.6556 163.612 15.624 163.587 15.5877C163.519 15.491 163.428 15.3608 163.309 15.2689C162.357 14.5299 161.317 13.9558 160.207 13.5221C159.718 13.3311 159.411 13.403 159.293 13.7469C159.171 14.1028 159.336 14.3636 159.836 14.5551C160.839 14.941 161.772 15.4638 162.643 16.1144C162.736 16.1843 162.833 16.2561 162.938 16.304ZM149.866 17.9573L149.866 17.9573L149.866 17.9573C149.76 17.8599 149.65 17.7589 149.591 17.6315C149.475 17.3827 149.603 17.1493 149.818 17.0116C149.902 16.958 149.985 16.9039 150.069 16.8499C150.468 16.5917 150.868 16.3327 151.29 16.1215C151.725 15.9035 152.185 15.7376 152.644 15.5722C152.712 15.5478 152.779 15.5234 152.847 15.4988C153.187 15.3751 153.465 15.5161 153.567 15.8215C153.665 16.1168 153.517 16.4228 153.173 16.5339C152.182 16.8532 151.258 17.3122 150.396 17.9163C150.336 17.958 150.266 17.983 150.173 18.0164L150.173 18.0164C150.122 18.0346 150.064 18.0553 149.997 18.0826L149.997 18.0832C149.957 18.0407 149.912 17.9994 149.866 17.9573ZM161.761 36.0208C161.658 36.38 161.913 36.6966 162.375 36.6993H162.376C162.396 36.6816 162.426 36.6615 162.46 36.6385C162.553 36.5758 162.679 36.4912 162.72 36.374C163.003 35.5678 163.254 34.7489 163.494 33.9267C163.577 33.6386 163.397 33.3659 163.131 33.2834C162.874 33.2036 162.613 33.3153 162.518 33.602C162.251 34.403 161.995 35.2085 161.761 36.0208ZM157.005 17.4938C157.813 17.6136 158.637 17.8557 159.407 18.2755C159.67 18.4191 159.738 18.7245 159.614 18.9892C159.498 19.2354 159.254 19.3352 158.974 19.2467C158.253 19.0192 157.533 18.791 156.814 18.5615C156.521 18.4677 156.372 18.2309 156.416 17.9409C156.459 17.6675 156.668 17.4938 157.005 17.4932L157.005 17.4938ZM162.087 9.26418C162.064 9.25845 162.042 9.25305 162.022 9.24725V9.24658C161.736 9.26255 161.554 9.39227 161.493 9.66101C161.425 9.96236 161.553 10.1792 161.81 10.3069C162.276 10.539 162.744 10.7648 163.212 10.9906L163.321 11.0433C163.657 11.2057 163.945 11.1278 164.083 10.8424C164.232 10.5358 164.128 10.2371 163.781 10.0581C163.345 9.83346 162.902 9.62304 162.459 9.41261C162.396 9.38256 162.333 9.35251 162.27 9.32242C162.21 9.2941 162.145 9.27817 162.087 9.26418Z" fill="#7E60BF"/>
</svg>
