<svg width="120" height="121" viewBox="0 0 120 121" fill="none" xmlns="http://www.w3.org/2000/svg">
<path fill-rule="evenodd" clip-rule="evenodd" d="M53.7949 0.148319C38.6772 2.29919 27.2901 7.77641 17.4439 17.6325C8.89263 26.1934 3.30112 36.7013 0.662918 49.1693C-0.220973 53.3454 -0.220973 67.1005 0.662918 71.2766C4.73011 90.4991 16.3796 105.832 33.327 114.27C37.4825 116.34 43.9595 118.555 48.9473 119.612C53.1189 120.497 66.8594 120.497 71.0311 119.612C90.2332 115.541 105.55 103.879 113.979 86.9134C118.273 78.2727 120 70.615 120 60.2229C120 51.9839 119.507 48.6565 117.243 41.6205C114.302 32.4821 109.429 24.5348 102.534 17.6325C94.0989 9.18804 83.949 3.68117 72.1083 1.12481C68.3702 0.317628 56.9017 -0.293826 53.7949 0.148319ZM66.5308 24.6265C75.1893 27.3322 81.5343 36.0009 81.5343 45.1253C81.5343 56.7747 71.6262 66.6934 59.9892 66.6934C50.8745 66.6934 42.2149 60.3416 39.5121 51.6739C34.3116 34.9921 49.8667 19.4205 66.5308 24.6265ZM71.5697 74.8013C81.1853 77.8133 89.0638 83.7418 94.3656 91.9528C95.5091 93.7241 96.7716 95.9639 97.1718 96.9302C97.8893 98.6648 97.8683 98.7139 95.5069 100.783C89.3574 106.172 81.5182 110.307 73.0105 112.65C69.5778 113.596 67.3684 113.789 59.9892 113.789C52.6099 113.789 50.4005 113.596 46.9678 112.65C38.4601 110.307 30.6209 106.172 24.4714 100.783C22.1101 98.7139 22.089 98.6648 22.8065 96.9302C23.2067 95.9639 24.4693 93.7241 25.6128 91.9528C31.7257 82.4855 41.8465 75.6991 52.8593 73.6841C57.2729 72.8764 67.3441 73.4781 71.5697 74.8013Z" fill="#E3E3E8"/>
</svg>
