<svg xmlns="http://www.w3.org/2000/svg" width="24" height="24" fill="none"><path fill="#000" fill-rule="evenodd" d="M2.574 12.707c-.18-.277-.324-.518-.433-.707a18.678 18.678 0 0 1 2.464-3.316C6.395 6.774 8.9 5 12 5c3.1 0 5.605 1.774 7.395 3.684A18.681 18.681 0 0 1 21.86 12a18.684 18.684 0 0 1-2.464 3.316C17.605 17.226 15.101 19 12 19c-3.1 0-5.604-1.774-7.395-3.684a18.68 18.68 0 0 1-2.03-2.609ZM23 12l.894-.448L23 12Zm.894-.448c.14.282.141.614 0 .895L23 12c.894.447.894.448.894.449l-.002.002-.003.007-.011.022a10.615 10.615 0 0 1-.192.354 20.672 20.672 0 0 1-2.831 3.85C18.895 18.774 15.899 21 12 21c-3.9 0-6.896-2.226-8.855-4.316a20.67 20.67 0 0 1-2.831-3.85 12.375 12.375 0 0 1-.192-.354l-.011-.022-.003-.007-.002-.004L.999 12l-.893.447a1 1 0 0 1 0-.894L1 12c-.894-.447-.894-.448-.894-.449l.002-.002.003-.007.011-.022a8.267 8.267 0 0 1 .192-.354 20.674 20.674 0 0 1 2.831-3.85C5.105 5.226 8.1 3 12 3c3.9 0 6.895 2.226 8.855 4.316a20.675 20.675 0 0 1 2.831 3.85 11.81 11.81 0 0 1 .192.354l.011.022.003.007.002.003ZM10 12a2 2 0 1 1 4 0 2 2 0 0 1-4 0Zm2-4a4 4 0 1 0 0 8 4 4 0 0 0 0-8Z" clip-rule="evenodd"/></svg>