<svg xmlns="http://www.w3.org/2000/svg" width="24" height="24" fill="none"><g clip-path="url(#a)"><path fill="#000" fill-rule="evenodd" d="M22.29 23.71c.2.19.45.29.71.29v-.01a.996.996 0 0 0 .71-1.7l-22-22C1.32-.1.68-.1.29.29-.1.68-.1 1.32.29 1.71l4.275 4.275A19.264 19.264 0 0 0 .12 11.53c-.15.29-.16.63-.01.92.17.35 4.356 8.543 11.9 8.55h.01-.01a11.008 11.008 0 0 0 5.813-1.757l4.467 4.467Zm-5.917-5.917-2.326-2.326a4.009 4.009 0 0 1-1.997.613h-.14l.01-.01a3.995 3.995 0 0 1-3.99-3.85 3.957 3.957 0 0 1 .604-2.266L5.983 7.403A17.112 17.112 0 0 0 2.14 12.01c.94 1.61 4.48 7 9.86 7a8.917 8.917 0 0 0 4.373-1.217ZM10.02 11.44a2.006 2.006 0 0 0-.1.71c.02.53.24 1.03.64 1.39.39.36.92.56 1.43.54.195-.007.386-.042.568-.102L10.02 11.44Zm10.18 4.52c.18.15.41.23.64.23v-.01c.29 0 .57-.12.77-.36.87-1.03 1.64-2.16 2.28-3.36.15-.29.15-.63.01-.92-.17-.35-4.36-8.55-11.89-8.55-.81-.03-1.57.09-2.33.27-.54.12-.88.66-.75 1.2.12.54.66.88 1.2.75.61-.14 1.27-.18 1.87-.21 5.38 0 8.92 5.39 9.86 7-.52.9-1.11 1.76-1.78 2.55a1 1 0 0 0 .12 1.41Z" clip-rule="evenodd"/></g><defs><clipPath id="a"><path fill="#fff" d="M0 0h24v24H0z"/></clipPath></defs></svg>